<?xml version="1.0" standalone="no"?>
<!DOCTYPE svg PUBLIC "-//W3C//DTD SVG 20010904//EN"
 "http://www.w3.org/TR/2001/REC-SVG-20010904/DTD/svg10.dtd">
<svg version="1.0" xmlns="http://www.w3.org/2000/svg"
 width="700.000000pt" height="700.000000pt" viewBox="0 0 700.000000 700.000000"
 preserveAspectRatio="xMidYMid meet">
<metadata>
Created by potrace 1.14, written by Peter Selinger 2001-2017
</metadata>
<g transform="translate(0.000000,700.000000) scale(0.100000,-0.100000)"
fill="#000000" stroke="none">
<path d="M2068 6675 c-2 -1 -39 -5 -83 -9 -184 -14 -392 -89 -555 -200 -68
-46 -67 -45 -170 -146 -196 -193 -292 -389 -345 -705 -6 -36 -7 -4193 -1
-4203 2 -4 7 -32 11 -62 11 -87 52 -218 100 -317 169 -353 491 -598 875 -667
121 -22 356 -15 470 13 270 68 473 194 660 411 69 79 159 241 198 355 38 111
59 211 61 293 1 19 5 32 11 30 5 -2 200 -192 432 -424 407 -405 480 -470 608
-542 100 -55 269 -115 364 -127 17 -3 58 -8 91 -12 70 -9 138 -9 250 2 44 4
80 6 80 5 0 -1 13 3 28 9 15 6 41 13 57 16 100 18 311 119 420 202 294 224
470 570 473 933 3 261 -57 464 -202 685 -58 89 -130 165 -669 704 l-603 605
594 595 c620 623 650 656 735 826 110 223 145 494 97 767 -21 119 -95 291
-180 418 -326 491 -969 671 -1495 419 -182 -87 -228 -126 -669 -566 -228 -227
-416 -411 -417 -410 -1 1 -5 27 -8 57 -64 540 -512 981 -1053 1035 -71 7 -162
12 -165 10z"/>
</g>
</svg>
