<?xml version="1.0" encoding="UTF-8" standalone="no"?>
<!-- Created with Inkscape (http://www.inkscape.org/) -->

<svg
   width="250mm"
   height="72mm"
   viewBox="0 0 250 72"
   version="1.1"
   id="svg5"
   xmlns:xlink="http://www.w3.org/1999/xlink"
   xmlns="http://www.w3.org/2000/svg"
   xmlns:svg="http://www.w3.org/2000/svg">
  <defs
     id="defs2">
    <linearGradient
       id="linearGradient18279">
      <stop
         style="stop-color:#00ffff;stop-opacity:1;"
         offset="0"
         id="stop18275" />
      <stop
         style="stop-color:#ff00ff;stop-opacity:1;"
         offset="0.5"
         id="stop18283" />
      <stop
         style="stop-color:#ffff00;stop-opacity:1;"
         offset="1"
         id="stop18277" />
    </linearGradient>
    <linearGradient
       xlink:href="#linearGradient18279"
       id="linearGradient18281"
       x1="2.0739124"
       y1="36.736664"
       x2="253.43425"
       y2="36.736664"
       gradientUnits="userSpaceOnUse"
       gradientTransform="translate(6.2220628,-1.8431077)" />
    <linearGradient
       xlink:href="#linearGradient18279"
       id="linearGradient424"
       gradientUnits="userSpaceOnUse"
       gradientTransform="translate(6.2220628,-1.8431077)"
       x1="2.0739124"
       y1="36.736664"
       x2="253.43425"
       y2="36.736664" />
    <linearGradient
       xlink:href="#linearGradient18279"
       id="linearGradient426"
       gradientUnits="userSpaceOnUse"
       gradientTransform="translate(6.2220628,-1.8431077)"
       x1="2.0739124"
       y1="36.736664"
       x2="253.43425"
       y2="36.736664" />
    <linearGradient
       xlink:href="#linearGradient18279"
       id="linearGradient428"
       gradientUnits="userSpaceOnUse"
       gradientTransform="translate(6.2220628,-1.8431077)"
       x1="2.0739124"
       y1="36.736664"
       x2="253.43425"
       y2="36.736664" />
    <linearGradient
       xlink:href="#linearGradient18279"
       id="linearGradient430"
       gradientUnits="userSpaceOnUse"
       gradientTransform="translate(6.2220628,-1.8431077)"
       x1="2.0739124"
       y1="36.736664"
       x2="253.43425"
       y2="36.736664" />
    <linearGradient
       xlink:href="#linearGradient18279"
       id="linearGradient432"
       gradientUnits="userSpaceOnUse"
       gradientTransform="translate(6.2220628,-1.8431077)"
       x1="2.0739124"
       y1="36.736664"
       x2="253.43425"
       y2="36.736664" />
    <linearGradient
       xlink:href="#linearGradient18279"
       id="linearGradient434"
       gradientUnits="userSpaceOnUse"
       gradientTransform="translate(6.2220628,-1.8431077)"
       x1="2.0739124"
       y1="36.736664"
       x2="253.43425"
       y2="36.736664" />
    <linearGradient
       xlink:href="#linearGradient18279"
       id="linearGradient436"
       gradientUnits="userSpaceOnUse"
       gradientTransform="translate(6.2220628,-1.8431077)"
       x1="2.0739124"
       y1="36.736664"
       x2="253.43425"
       y2="36.736664" />
    <linearGradient
       xlink:href="#linearGradient18279"
       id="linearGradient438"
       gradientUnits="userSpaceOnUse"
       gradientTransform="translate(6.2220628,-1.8431077)"
       x1="2.0739124"
       y1="36.736664"
       x2="253.43425"
       y2="36.736664" />
  </defs>
  <g
     id="layer1">
    <g
       aria-label="ksalp.ch"
       id="text18273"
       style="font-weight:bold;font-size:64.0001px;font-family:'Avenir Next LT Pro';-inkscape-font-specification:'Avenir Next LT Pro Bold';fill:#808080;stroke:url(#linearGradient18281);stroke-width:4;stroke-linecap:round;stroke-linejoin:round">
      <path
         d="m 39.864021,45.77357 q -0.320001,3.008005 -1.792003,4.608007 -1.408002,1.600003 -4.160006,1.600003 -2.048003,0 -3.648006,-0.960002 -1.600002,-1.024002 -3.456005,-3.392005 l -6.33601,-7.936013 v 11.648019 q -0.704001,0.128 -2.112003,0.32 -1.344002,0.256 -2.752005,0.256 -1.408002,0 -2.560004,-0.192 -1.088001,-0.192 -1.856002,-0.768001 Q 10.423975,50.381577 9.9759746,49.421576 9.591974,48.397574 9.591974,46.797571 V 9.741514 q 0.704001,-0.1920003 2.048003,-0.3840005 1.408002,-0.2560004 2.816005,-0.2560004 1.408002,0 2.496003,0.1920003 1.152002,0.1920002 1.920003,0.7680016 0.768002,0.576 1.152002,1.600002 0.448001,0.960002 0.448001,2.560004 V 31.117547 L 31.480008,19.85353 q 3.328005,0 5.312008,1.472002 2.048003,1.472002 2.048003,3.712006 0,0.960001 -0.32,1.792003 -0.320001,0.768001 -1.024002,1.600002 -0.640001,0.832001 -1.728002,1.792003 -1.024002,0.896001 -2.432004,2.112003 l -3.712006,3.200005 z"
         style="font-family:Baloo;-inkscape-font-specification:'Baloo Bold';stroke:url(#linearGradient424)"
         id="path318" />
      <path
         d="m 70.456143,42.125564 q 0,4.864008 -3.648006,7.616012 -3.648005,2.752004 -10.752016,2.752004 -2.688004,0 -4.992008,-0.384 -2.304004,-0.384001 -3.968006,-1.152002 -1.600003,-0.832001 -2.560004,-2.048003 -0.896001,-1.216002 -0.896001,-2.880005 0,-1.536002 0.640001,-2.560004 0.640001,-1.088001 1.536002,-1.792002 1.856003,1.024001 4.224006,1.856002 2.432004,0.768002 5.568009,0.768002 1.984003,0 3.008005,-0.576001 1.088001,-0.576001 1.088001,-1.536003 0,-0.896001 -0.768001,-1.408002 -0.768001,-0.512001 -2.560004,-0.832001 L 54.456118,39.56556 q -5.568008,-1.088001 -8.320013,-3.392005 -2.688004,-2.368004 -2.688004,-6.72001 0,-2.368004 1.024002,-4.288007 1.024001,-1.920003 2.880004,-3.200005 1.856003,-1.280002 4.416007,-1.984003 2.624004,-0.704001 5.760009,-0.704001 2.368004,0 4.416007,0.384 2.112003,0.320001 3.648006,1.024002 1.536002,0.704001 2.432003,1.856003 0.896002,1.088002 0.896002,2.624004 0,1.472002 -0.576001,2.560004 -0.512001,1.024002 -1.344002,1.728003 -0.512001,-0.320001 -1.536003,-0.640001 -1.024001,-0.384001 -2.240003,-0.640001 -1.216002,-0.320001 -2.496004,-0.512001 -1.216002,-0.192 -2.240003,-0.192 -2.112004,0 -3.264005,0.512 -1.152002,0.448001 -1.152002,1.472003 0,0.704001 0.640001,1.152001 0.640001,0.448001 2.432003,0.832002 l 1.984004,0.448 q 6.144009,1.408003 8.704013,3.904006 2.624004,2.432004 2.624004,6.33601 z"
         style="font-family:Baloo;-inkscape-font-specification:'Baloo Bold';stroke:url(#linearGradient426)"
         id="path320" />
      <path
         d="m 89.656228,44.493568 q 1.088002,0 2.368004,-0.192 1.344002,-0.256001 1.984003,-0.640001 v -5.120008 l -4.608007,0.384 q -1.792003,0.128 -2.944005,0.768001 -1.152002,0.640001 -1.152002,1.920003 0,1.280002 0.960002,2.112004 1.024002,0.768001 3.392005,0.768001 z M 89.144227,19.341529 q 3.456006,0 6.27201,0.704001 2.880005,0.704001 4.864003,2.176003 2.04801,1.408003 3.13601,3.648006 1.088,2.176003 1.088,5.184008 v 14.336022 q 0,1.664003 -0.96,2.752005 -0.896,1.024001 -2.176,1.792002 -4.16001,2.496004 -11.712022,2.496004 -3.392005,0 -6.144009,-0.640001 -2.688004,-0.640001 -4.672008,-1.920003 -1.920003,-1.280002 -3.008004,-3.264005 -1.024002,-1.984003 -1.024002,-4.608007 0,-4.416007 2.624004,-6.78401 2.624004,-2.368004 8.128013,-2.944005 l 8.384013,-0.896001 v -0.448001 q 0,-1.856003 -1.664003,-2.624004 -1.600002,-0.832001 -4.672007,-0.832001 -2.432004,0 -4.736007,0.512 -2.304004,0.512001 -4.160007,1.280002 -0.832001,-0.576001 -1.408002,-1.728002 -0.576001,-1.216002 -0.576001,-2.496004 0,-1.664003 0.768001,-2.624004 0.832002,-1.024002 2.496004,-1.728003 1.856003,-0.704001 4.352007,-1.024002 2.560004,-0.32 4.800007,-0.32 z"
         style="font-family:Baloo;-inkscape-font-specification:'Baloo Bold';stroke:url(#linearGradient428)"
         id="path322" />
      <path
         d="m 122.23231,51.341579 q -0.704,0.128 -2.112,0.32 -1.344,0.256 -2.75201,0.256 -1.408,0 -2.56,-0.192 -1.088,-0.192 -1.856,-0.768001 -0.768,-0.576001 -1.21601,-1.536002 -0.384,-1.024002 -0.384,-2.624005 V 9.6775139 q 0.704,-0.1280002 2.04801,-0.3200004 1.408,-0.2560004 2.816,-0.2560004 1.408,0 2.49601,0.1920003 1.152,0.1920002 1.92,0.7680016 0.768,0.576 1.152,1.600002 0.448,0.960002 0.448,2.560004 z"
         style="font-family:Baloo;-inkscape-font-specification:'Baloo Bold';stroke:url(#linearGradient430)"
         id="path324" />
      <path
         d="m 143.35239,19.341529 q 3.84001,0 7.10401,1.024002 3.32801,0.960001 5.69601,3.008004 2.368,2.048003 3.71201,5.184008 1.344,3.072005 1.344,7.360012 0,4.096006 -1.152,7.168011 -1.15201,3.072004 -3.26401,5.184008 -2.112,2.048003 -5.12001,3.072005 -2.944,1.024001 -6.59201,1.024001 -2.752,0 -5.12001,-0.832001 v 10.624016 q -0.64,0.192001 -2.048,0.384001 -1.408,0.256 -2.88,0.256 -1.40801,0 -2.56001,-0.192 -1.088,-0.192 -1.856,-0.768001 -0.768,-0.576001 -1.152,-1.600003 -0.384,-0.960001 -0.384,-2.560004 V 26.957541 q 0,-1.728003 0.704,-2.816005 0.768,-1.088001 2.048,-1.984003 1.98401,-1.280002 4.92801,-2.048003 2.944,-0.768001 6.59201,-0.768001 z m 0.128,24.448038 q 6.59201,0 6.59201,-7.872012 0,-4.096007 -1.664,-6.08001 -1.6,-1.984003 -4.67201,-1.984003 -1.216,0 -2.176,0.320001 -0.96,0.256 -1.66401,0.640001 v 14.080021 q 0.76801,0.384001 1.66401,0.640001 0.896,0.256001 1.92,0.256001 z"
         style="font-family:Baloo;-inkscape-font-specification:'Baloo Bold';stroke:url(#linearGradient432)"
         id="path326" />
      <path
         d="m 163.96035,46.221571 q 0,-2.688005 1.66401,-4.480007 1.664,-1.792003 4.544,-1.792003 2.88001,0 4.54401,1.792003 1.664,1.792002 1.664,4.480007 0,2.688004 -1.664,4.480007 -1.664,1.792002 -4.54401,1.792002 -2.88,0 -4.544,-1.792002 -1.66401,-1.792003 -1.66401,-4.480007 z"
         style="font-family:Baloo;-inkscape-font-specification:'Baloo Bold';stroke:url(#linearGradient434)"
         id="path328" />
      <path
         d="m 198.00844,27.917542 q -1.6,0 -3.07201,0.512001 -1.408,0.512001 -2.496,1.536002 -1.024,0.960002 -1.664,2.432004 -0.64,1.472002 -0.64,3.456006 0,3.968006 2.24,5.952009 2.304,1.984003 5.56801,1.984003 1.92,0 3.328,-0.448001 1.40801,-0.448001 2.49601,-0.960001 1.28,0.896001 1.92,1.984003 0.64,1.024001 0.64,2.496004 0,2.624004 -2.496,4.096006 -2.49601,1.408002 -6.91201,1.408002 -4.03201,0 -7.29601,-1.152002 -3.26401,-1.216002 -5.63201,-3.328005 -2.30401,-2.176003 -3.58401,-5.184008 -1.28,-3.008005 -1.28,-6.65601 0,-4.224007 1.344,-7.360012 1.408,-3.200005 3.77601,-5.248008 2.368,-2.048003 5.44001,-3.072004 3.136,-1.024002 6.59201,-1.024002 4.608,0 7.10401,1.664003 2.496,1.664002 2.496,4.288006 0,1.216002 -0.576,2.304004 -0.576,1.024001 -1.344,1.792002 -1.088,-0.512 -2.62401,-0.960001 -1.536,-0.512001 -3.328,-0.512001 z"
         style="font-family:Baloo;-inkscape-font-specification:'Baloo Bold';stroke:url(#linearGradient436)"
         id="path330" />
      <path
         d="m 242.48853,51.341579 q -0.64001,0.192 -2.04801,0.384 -1.344,0.192 -2.816,0.192 -1.408,0 -2.56001,-0.192 -1.088,-0.192 -1.856,-0.768001 -0.768,-0.576001 -1.216,-1.536002 -0.384,-1.024002 -0.384,-2.624005 V 32.589549 q 0,-2.624004 -1.344,-3.648005 -1.28001,-1.088002 -3.20001,-1.088002 -1.28,0 -2.432,0.320001 -1.152,0.32 -1.856,0.768001 v 22.400035 q -0.64001,0.192 -2.04801,0.384 -1.344,0.192 -2.816,0.192 -1.408,0 -2.56001,-0.192 -1.088,-0.192 -1.856,-0.768001 -0.768,-0.576001 -1.216,-1.536002 -0.384,-1.024002 -0.384,-2.624005 V 9.6775139 q 0.704,-0.1280002 2.048,-0.3200004 1.408,-0.2560004 2.81601,-0.2560004 1.408,0 2.496,0.1920003 1.152,0.1920002 1.92,0.7680016 0.768,0.576 1.152,1.600002 0.44801,0.960002 0.44801,2.560004 v 6.27201 q 0.832,-0.320001 2.496,-0.704001 1.728,-0.448001 3.77601,-0.448001 6.336,0 9.85601,3.200005 3.58401,3.136005 3.58401,9.408014 z"
         style="font-family:Baloo;-inkscape-font-specification:'Baloo Bold';stroke:url(#linearGradient438)"
         id="path332" />
    </g>
  </g>
</svg>
